# xmcd CD database file
#
# Track frame offsets:
#	150
#	21008
#	45128
#	66556
#	87810
#	108143
#	124123
#	143345
#	163837
#	187185
#	207771
#	230016
#	250752
#
# Disc length: 3614 seconds
#
# Revision: 2
# Processed by: cddbd v1.5.1PL0 Copyright (c) Steve Scherf et al.
# Submitted via: CDex 1.51
#
DISCID=a80e1c0d
DTITLE=???? - VOCALIST
DYEAR=2005
DGENRE=JPop
TTITLE0=??
TTITLE1=?????
TTITLE2=?
TTITLE3=???
TTITLE4=??????????
TTITLE5=LOVE LOVE LOVE
TTITLE6=??
TTITLE7=?????
TTITLE8=??????????
TTITLE9=???????????
TTITLE10=????
TTITLE11=??????
TTITLE12=????
EXTD=YEAR: 2005
EXTT0=
EXTT1=
EXTT2=
EXTT3=
EXTT4=
EXTT5=
EXTT6=
EXTT7=
EXTT8=
EXTT9=
EXTT10=
EXTT11=
EXTT12=
PLAYORDER=
